# xmcd CD database file
#
# Track frame offsets:
#	150
#	14958
#	35919
#	49048
#	62763
#	78140
#	105143
#	130793
#	143424
#	155322
#	167206
#	179771
#	194004
#	205953
#	220004
#
# Disc length: 3224 seconds
#
# Revision: 0
# Processed by: cddbd v1.5.1PL2 Copyright (c) Steve Scherf et al.
# Submitted via: CDex 1.51
#
DISCID=d40c960f
DTITLE=Hear Music - All Through the Night - Voices in Jazz and Blues
DYEAR=2006
DGENRE=Jazz
TTITLE0=All Through the Night - Ella Fitzgerald
TTITLE1=When Your Lover Has Gone - Louis Armstrong
TTITLE2=Feeling Good - Nina Simone
TTITLE3=A Fool for You - Ray Charles
TTITLE4=Stop This World - Mose Allison
TTITLE5=Someone to Watch Over Me - Blossom Dearie
TTITLE6=Pra;yer Meeting - Jimmy Smith
TTITLE7=Flip Flop and Fly - Joe Turner
TTITLE8=Turn on Your Love Light - Bobby "Blue" Bland
TTITLE9=New Blowtop Blues - Dinah Washington
TTITLE10=Let the Good Times Roll - Louis Jordan and His Tympany Five
TTITLE11=Billie's Blues - Billie Holiday
TTITLE12=Next Time You See Me - Junior Parker
TTITLE13=Black Coffee - Peggy Lee
TTITLE14=Bumpin' on Sunset - Wes Montgomery
EXTD=YEAR: 2006
EXTT0=
EXTT1=
EXTT2=
EXTT3=
EXTT4=
EXTT5=
EXTT6=
EXTT7=
EXTT8=
EXTT9=
EXTT10=
EXTT11=
EXTT12=
EXTT13=
EXTT14=
PLAYORDER=
